<?xml version="1.0" encoding="UTF-8"?>
<svg xmlns="http://www.w3.org/2000/svg" xmlns:xlink="http://www.w3.org/1999/xlink" width="96pt" height="96pt" viewBox="0 0 96 96" version="1.1">
<g id="surface3751">
<path style=" stroke:none;fill-rule:nonzero;fill:rgb(81.176471%,84.705882%,86.27451%);fill-opacity:1;" d="M 60 26 L 36 26 L 22 48 L 36 70 L 60 70 L 74 48 Z M 48 58 C 42.398438 58 38 53.601562 38 48 C 38 42.398438 42.398438 38 48 38 C 53.601562 38 58 42.398438 58 48 C 58 53.601562 53.601562 58 48 58 Z M 48 58 "/>
<path style=" stroke:none;fill-rule:nonzero;fill:rgb(12.941176%,58.823529%,95.294118%);fill-opacity:1;" d="M 69.601562 14.398438 C 68.601562 13 67 12 65.199219 12 L 30.800781 12 C 29 12 27.398438 13 26.398438 14.398438 L 14.800781 33.398438 L 24 48 L 36.601562 28 L 77.800781 28 Z M 32 22 C 30.800781 22 30 21.199219 30 20 C 30 18.800781 30.800781 18 32 18 C 33.199219 18 34 18.800781 34 20 C 34 21.199219 33.199219 22 32 22 Z M 64 22 C 62.800781 22 62 21.199219 62 20 C 62 18.800781 62.800781 18 64 18 C 65.199219 18 66 18.800781 66 20 C 66 21.199219 65.199219 22 64 22 Z M 64 22 "/>
<path style=" stroke:none;fill-rule:nonzero;fill:rgb(100%,75.686275%,2.745098%);fill-opacity:1;" d="M 36.601562 68 L 14.800781 33.601562 L 7.601562 45.398438 C 6.601562 47 6.601562 49.199219 7.601562 50.800781 L 26.398438 81.601562 C 27.398438 83.199219 29 84 30.800781 84 L 49 84 L 59.199219 68 Z M 16 50 C 14.800781 50 14 49.199219 14 48 C 14 46.800781 14.800781 46 16 46 C 17.199219 46 18 46.800781 18 48 C 18 49.199219 17.199219 50 16 50 Z M 32 78 C 30.800781 78 30 77.199219 30 76 C 30 74.800781 30.800781 74 32 74 C 33.199219 74 34 74.800781 34 76 C 34 77.199219 33.199219 78 32 78 Z M 32 78 "/>
<path style=" stroke:none;fill-rule:nonzero;fill:rgb(9.803922%,46.27451%,82.352941%);fill-opacity:1;" d="M 14.800781 33.601562 L 24 48 L 28.800781 40.601562 L 17 30 Z M 14.800781 33.601562 "/>
<path style=" stroke:none;fill-rule:nonzero;fill:rgb(97.647059%,65.882353%,14.509804%);fill-opacity:1;" d="M 49.199219 84 L 59.398438 68 L 49.800781 68 L 45.199219 84 Z M 49.199219 84 "/>
<path style=" stroke:none;fill-rule:nonzero;fill:rgb(86.666667%,17.254902%,0%);fill-opacity:1;" d="M 88.398438 45.398438 L 77.800781 28 L 59.398438 28 L 72 48 L 49.199219 84 L 65.199219 84 C 67 84 68.601562 83 69.601562 81.601562 L 88.601562 50.800781 C 89.601562 49 89.601562 47 88.398438 45.398438 Z M 64 78 C 62.800781 78 62 77.199219 62 76 C 62 74.800781 62.800781 74 64 74 C 65.199219 74 66 74.800781 66 76 C 66 77.199219 65.199219 78 64 78 Z M 80 50 C 78.800781 50 78 49.199219 78 48 C 78 46.800781 78.800781 46 80 46 C 81.199219 46 82 46.800781 82 48 C 82 49.199219 81.199219 50 80 50 Z M 80 50 "/>
<path style=" stroke:none;fill-rule:nonzero;fill:rgb(74.901961%,21.176471%,4.705882%);fill-opacity:1;" d="M 77.800781 28 L 59.398438 28 L 64.398438 35.800781 L 80.199219 32 Z M 77.800781 28 "/>
</g>
</svg>
